<svg height='300px' width='300px'  fill="#000000" xmlns="http://www.w3.org/2000/svg" xmlns:xlink="http://www.w3.org/1999/xlink" version="1.1" x="0px" y="0px" viewBox="0 0 32 32" style="enable-background:new 0 0 32 32;" xml:space="preserve"><g><path d="M16,32C7.178,32,0,24.822,0,16S7.178,0,16,0s16,7.178,16,16S24.822,32,16,32z M16,2C8.28,2,2,8.28,2,16s6.28,14,14,14   s14-6.28,14-14S23.72,2,16,2z"></path><path d="M21,22c-0.256,0-0.512-0.098-0.707-0.293l-10-10c-0.391-0.391-0.391-1.023,0-1.414s1.023-0.391,1.414,0l10,10   c0.391,0.391,0.391,1.023,0,1.414C21.512,21.902,21.256,22,21,22z"></path><path d="M21,22c-0.256,0-0.512-0.098-0.707-0.293l-10-10c-0.391-0.391-0.391-1.023,0-1.414s1.023-0.391,1.414,0l10,10   c0.391,0.391,0.391,1.023,0,1.414C21.512,21.902,21.256,22,21,22z"></path><path d="M11,22c-0.256,0-0.512-0.098-0.707-0.293c-0.391-0.391-0.391-1.023,0-1.414l10-10c0.391-0.391,1.023-0.391,1.414,0   s0.391,1.023,0,1.414l-10,10C11.512,21.902,11.256,22,11,22z"></path></g></svg>
